<?xml version="1.0" standalone="no"?>
<!DOCTYPE svg PUBLIC "-//W3C//DTD SVG 20010904//EN"
 "http://www.w3.org/TR/2001/REC-SVG-20010904/DTD/svg10.dtd">
<svg version="1.0" xmlns="http://www.w3.org/2000/svg"
 width="1951.000000pt" height="1951.000000pt" viewBox="0 0 1951.000000 1951.000000"
 preserveAspectRatio="xMidYMid meet">
<metadata>
Created by potrace 1.11, written by Peter Selinger 2001-2013
</metadata>
<g transform="translate(0.000000,1951.000000) scale(0.100000,-0.100000)"
fill="#000000" stroke="none">
<path d="M9485 19499 c-1312 -56 -2562 -539 -3570 -1379 -796 -663 -1432
-1557 -1781 -2505 -25 -66 -49 -130 -54 -141 -17 -41 -109 -350 -139 -467
-228 -881 -248 -1822 -61 -2732 68 -330 181 -704 305 -1007 7 -17 -21 -18
-459 -20 l-465 -3 3247 -5618 c2797 -4839 3249 -5615 3259 -5600 18 23 6462
11199 6469 11218 5 13 -47 15 -460 15 -256 0 -466 2 -466 4 0 2 20 55 44 118
181 468 302 985 363 1543 22 205 25 907 5 1115 -101 1033 -421 1946 -975 2780
-441 663 -1006 1231 -1664 1671 -933 625 -1962 960 -3100 1009 -247 10 -235
10 -498 -1z m3745 -4629 l0 -1400 -430 0 c-236 0 -430 2 -430 3 0 2 -85 420
-190 930 -104 509 -190 928 -190 931 0 3 -717 5 -1592 4 l-1593 -3 0 -1520 0
-1520 893 -3 c490 -1 892 -1 893 0 0 2 46 278 103 613 l102 610 412 3 412 2 0
-1700 0 -1700 -412 2 -412 3 -101 605 -101 605 -894 0 -895 0 -3 -1454 c-1
-800 1 -1458 5 -1462 5 -4 322 -58 706 -120 l697 -113 0 -398 0 -398 -1985 0
-1985 0 0 363 0 364 565 144 565 143 0 3443 c0 1894 -2 3443 -3 3443 -5 0
-1069 238 -1103 246 l-24 6 0 364 0 364 3495 0 3495 0 0 -1400z"/>
<path d="M6362 15893 l3 -257 550 -123 c303 -68 556 -125 563 -128 9 -3 12
-721 12 -3539 l0 -3536 -27 -6 c-16 -4 -269 -69 -563 -144 l-535 -136 -3 -257
-2 -257 1865 0 1865 0 0 285 0 285 -22 5 c-13 3 -325 54 -695 114 -369 60
-676 112 -682 116 -8 4 -11 476 -11 1576 l0 1569 1008 0 1007 0 98 -592 c54
-326 101 -601 103 -610 5 -17 28 -18 305 -18 l299 0 0 1580 0 1580 -300 0
c-165 0 -300 -1 -301 -2 0 -2 -46 -277 -103 -613 l-102 -610 -1004 0 -1005 0
0 1640 0 1640 1694 3 c932 1 1698 -1 1702 -5 4 -5 92 -417 194 -918 102 -500
188 -918 191 -927 5 -17 29 -18 325 -18 l319 0 0 1280 0 1280 -3375 0 -3375 0
2 -257z"/>
</g>
</svg>
