<svg width="50" height="65" viewBox="0 0 501 651" fill="none" xmlns="http://www.w3.org/2000/svg">
<path d="M439.933 200C439.933 304.934 354.867 390 249.933 390C144.999 390 59.9331 304.934 59.9331 200C59.9331 95.0659 144.999 10 249.933 10C354.867 10 439.933 95.0659 439.933 200Z" fill="#246428" stroke="#84A9AC" stroke-width="20"/>
<path d="M250.252 650.193L33.5565 275.302L466.569 275.084L250.252 650.193Z" fill="#246428"/>
<path d="M286.227 309.529L286.506 311.2H288.2H308.6H310.6V309.2V203.6V201.6H308.6H288.2H286.506L286.227 203.271L279.706 242.4H216.6V137.2H326.169L338.641 198.002L338.969 199.6H340.6H362.2H364.2V197.6V112V110H362.2H137H135V112V129.2V130.802L136.564 131.152L172.6 139.202V371.646L136.505 380.862L135 381.246V382.8V400V402H137H261.4H263.4V400V380.8V379.099L261.721 378.826L216.6 371.499V270.4H279.706L286.227 309.529Z" fill="#84A9AC" stroke="#C4C3BC" stroke-width="4"/>
</svg>
